<svg width="209" height="208" viewBox="0 0 209 208" fill="none" xmlns="http://www.w3.org/2000/svg">
<g filter="url(#filter0_d_62_269)">
<path d="M203.987 99.41C203.022 39.0075 140.229 0.0699921 85.8769 26.17C53.8569 41.545 34.0069 77.955 40.4069 111.312C45.3044 136.845 60.5244 154.33 85.4169 161.9C109.907 169.347 131.829 163.36 149.994 145.367C167.544 127.985 173.282 101.627 164.722 81.4525C153.832 55.7875 121.849 45.22 99.6969 60.0375C95.8119 62.6375 92.7194 65.73 90.7919 69.61H90.7719C89.2494 72.285 89.6293 75.995 89.6293 75.995V86.7225C89.6293 86.7225 85.2494 94.085 85.3444 100.205C85.3444 100.205 83.9169 104.03 91.1544 108.237C91.1544 108.237 93.6843 110.15 94.8943 117.607C94.8943 117.607 96.3119 121.497 101.454 121.772C101.624 123.51 103.184 140.242 100.297 144.955C100.297 144.955 102.964 143.807 104.107 138.452C104.107 138.452 104.679 142.277 107.822 144.955C107.822 144.955 105.442 138.07 106.489 121.625H106.232C108.569 121.452 112.149 120.64 113.632 117.417C113.632 117.417 113.632 110.915 117.442 107.855C117.442 107.855 123.157 103.647 122.774 99.8225C122.774 99.8225 124.022 92.365 118.067 86.915C118.067 86.915 117.824 79.5525 118.584 76.11H118.569C118.792 75.02 119.194 74.24 119.462 73.8125C119.467 73.805 119.592 73.655 119.787 73.3725C119.792 73.3725 119.794 73.3725 119.799 73.375C121.459 70.545 124.802 69.4425 128.827 70.5525C130.882 71.12 132.877 72.23 134.654 73.45C149.172 83.43 153.604 98.3875 147.324 115.862C140.162 135.795 120.632 148.083 99.2269 146.122C79.3769 144.305 61.4794 127.757 58.6619 108.62C52.3569 65.775 91.6619 28.69 133.897 37.6325C168.979 45.06 190.552 77.2925 184.404 113.095C175.562 164.602 123.022 194.63 74.3994 175.967C40.7619 163.055 19.5894 128.35 22.9669 92.3575C24.5494 75.495 29.6994 60.05 38.8019 45.8475C41.5719 41.5225 40.9294 37.2875 37.3819 34.5675C34.2219 32.1425 29.9994 32.9525 26.6369 36.645C26.0694 37.2675 25.5544 37.9425 25.0519 38.6225C5.65436 64.7775 -0.700639 93.78 7.49936 125.38C20.7194 176.325 70.2119 207.57 122.302 198.413C168.969 190.208 204.747 146.848 203.989 99.41H203.987ZM92.9219 102.117C90.2544 99.44 91.3994 95.615 91.3994 95.615C92.1619 92.555 93.6843 92.555 93.6843 92.555C92.9219 97.145 94.4469 99.0575 94.4469 99.0575C96.3519 102.882 98.6368 103.647 98.6368 103.647C94.8269 104.412 92.9219 102.117 92.9219 102.117ZM116.297 101.352C116.297 101.352 114.392 103.647 110.582 102.882C110.582 102.882 112.867 102.117 114.772 98.2925C114.772 98.2925 116.294 96.38 115.534 91.79C115.534 91.79 117.057 91.79 117.819 94.85C117.819 94.85 118.962 98.675 116.297 101.352Z" fill="#F3BF22"/>
<path d="M93.0593 5.355C94.5325 5.355 95.7268 4.15624 95.7268 2.6775C95.7268 1.19876 94.5325 0 93.0593 0C91.5861 0 90.3918 1.19876 90.3918 2.6775C90.3918 4.15624 91.5861 5.355 93.0593 5.355Z" fill="#F3BF22"/>
<path d="M48.1093 34.4225C52.3163 34.4225 55.7268 30.9975 55.7268 26.7725C55.7268 22.5475 52.3163 19.1225 48.1093 19.1225C43.9022 19.1225 40.4918 22.5475 40.4918 26.7725C40.4918 30.9975 43.9022 34.4225 48.1093 34.4225Z" fill="#F3BF22"/>
<path d="M60.6793 21.4175C63.6244 21.4175 66.0118 19.02 66.0118 16.0625C66.0118 13.105 63.6244 10.7075 60.6793 10.7075C57.7342 10.7075 55.3468 13.105 55.3468 16.0625C55.3468 19.02 57.7342 21.4175 60.6793 21.4175Z" fill="#F3BF22"/>
<path d="M72.4893 13.005C74.5935 13.005 76.2993 11.2925 76.2993 9.18001C76.2993 7.06752 74.5935 5.35501 72.4893 5.35501C70.3851 5.35501 68.6793 7.06752 68.6793 9.18001C68.6793 11.2925 70.3851 13.005 72.4893 13.005Z" fill="#F3BF22"/>
<path d="M83.5368 8.41501C85.2198 8.41501 86.5843 7.045 86.5843 5.35501C86.5843 3.66502 85.2198 2.29501 83.5368 2.29501C81.8537 2.29501 80.4893 3.66502 80.4893 5.35501C80.4893 7.045 81.8537 8.41501 83.5368 8.41501Z" fill="#F3BF22"/>
</g>
<defs>
<filter id="filter0_d_62_269" x="0" y="0" width="208.001" height="208.001" filterUnits="userSpaceOnUse" color-interpolation-filters="sRGB">
<feFlood flood-opacity="0" result="BackgroundImageFix"/>
<feColorMatrix in="SourceAlpha" type="matrix" values="0 0 0 0 0 0 0 0 0 0 0 0 0 0 0 0 0 0 127 0" result="hardAlpha"/>
<feOffset dy="4"/>
<feGaussianBlur stdDeviation="2"/>
<feComposite in2="hardAlpha" operator="out"/>
<feColorMatrix type="matrix" values="0 0 0 0 0 0 0 0 0 0 0 0 0 0 0 0 0 0 0.89 0"/>
<feBlend mode="normal" in2="BackgroundImageFix" result="effect1_dropShadow_62_269"/>
<feBlend mode="normal" in="SourceGraphic" in2="effect1_dropShadow_62_269" result="shape"/>
</filter>
</defs>
</svg>
